HIERARCHY
ROOT Hips
{
  OFFSET 5.84602e-005 68.8428 3.50346
  CHANNELS 6 Xposition Yposition Zposition Zrotation Xrotation Yrotation
  JOINT Spine
  {
    OFFSET 0 8.597 -4.6522
    CHANNELS 3 Zrotation Xrotation Yrotation
    JOINT Spine1
    {
      OFFSET 0 7.8454 0.4098
      CHANNELS 3 Zrotation Xrotation Yrotation
      JOINT Spine2
      {
        OFFSET 0 9.7078 -2.1609
        CHANNELS 3 Zrotation Xrotation Yrotation
        JOINT Neck
        {
          OFFSET 0 21.8761 -0.4549
          CHANNELS 3 Zrotation Xrotation Yrotation
          JOINT Head
          {
            OFFSET 0 12.3537 3.3602
            CHANNELS 3 Zrotation Xrotation Yrotation
            End Site
            {
              OFFSET 0.0001 18.9506 0.5657
            }
          }
        }
        JOINT LeftShoulder
        {
          OFFSET 2.2086 21.1115 7.2329
          CHANNELS 3 Zrotation Xrotation Yrotation
          JOINT LeftArm
          {
            OFFSET 13.1193 3.0282 -4.8998
            CHANNELS 3 Zrotation Xrotation Yrotation
            JOINT LeftForeArm
            {
              OFFSET 27.4081 -0.0973053 -0.2375
              CHANNELS 3 Zrotation Xrotation Yrotation
              JOINT LeftHand
              {
                OFFSET 22.8641 0.0662994 -0.1369
                CHANNELS 3 Zrotation Xrotation Yrotation
                JOINT LeftHandIndex1
                {
                  OFFSET 8.8614 0.775009 2.4612
                  CHANNELS 3 Zrotation Xrotation Yrotation
                  JOINT LeftHandIndex2
                  {
                    OFFSET 3.3146 -0.808304 0.5841
                    CHANNELS 3 Zrotation Xrotation Yrotation
                    JOINT LeftHandIndex3
                    {
                      OFFSET 2.2628 -0.552002 0.3989
                      CHANNELS 3 Zrotation Xrotation Yrotation
                      End Site
                      {
                        OFFSET 1.6102 -0.4807 0.2612
                      }
                    }
                  }
                }
                JOINT LeftHandMiddle1
                {
                  OFFSET 8.9937 0.895004 0.2143
                  CHANNELS 3 Zrotation Xrotation Yrotation
                  JOINT LeftHandMiddle2
                  {
                    OFFSET 4.0984 0.0113983 -0.0242
                    CHANNELS 3 Zrotation Xrotation Yrotation
                    JOINT LeftHandMiddle3
                    {
                      OFFSET 2.2716 0.00689697 -0.0138001
                      CHANNELS 3 Zrotation Xrotation Yrotation
                      End Site
                      {
                        OFFSET 2.0404 -0.1441 0.0027
                      }
                    }
                  }
                }
                JOINT LeftHandRing1
                {
                  OFFSET 8.5234 0.597198 -2.0164
                  CHANNELS 3 Zrotation Xrotation Yrotation
                  JOINT LeftHandRing2
                  {
                    OFFSET 3.7188 -0.188293 -0.2328
                    CHANNELS 3 Zrotation Xrotation Yrotation
                    JOINT LeftHandRing3
                    {
                      OFFSET 2.1191 -0.106598 -0.1332
                      CHANNELS 3 Zrotation Xrotation Yrotation
                      End Site
                      {
                        OFFSET 1.8737 -0.2304 -0.0886
                      }
                    }
                  }
                }
                JOINT LeftHandPinky1
                {
                  OFFSET 7.9094 -0.601089 -3.4825
                  CHANNELS 3 Zrotation Xrotation Yrotation
                  JOINT LeftHandPinky2
                  {
                    OFFSET 2.2874 -0.477005 -0.6314
                    CHANNELS 3 Zrotation Xrotation Yrotation
                    JOINT LeftHandPinky3
                    {
                      OFFSET 1.6774 -0.349396 -0.4633
                      CHANNELS 3 Zrotation Xrotation Yrotation
                      End Site
                      {
                        OFFSET 1.4888 -0.4091 -0.3416
                      }
                    }
                  }
                }
                JOINT LeftHandThumb1
                {
                  OFFSET 1.833 -1.3875 1.3896
                  CHANNELS 3 Zrotation Xrotation Yrotation
                  JOINT LeftHandThumb2
                  {
                    OFFSET 3.4129 -1.121 2.5732
                    CHANNELS 3 Zrotation Xrotation Yrotation
                    JOINT LeftHandThumb3
                    {
                      OFFSET 2.2474 -0.804199 1.6192
                      CHANNELS 3 Zrotation Xrotation Yrotation
                      End Site
                      {
                        OFFSET 1.6527 -0.5689 1.1317
                      }
                    }
                  }
                }
              }
            }
          }
        }
        JOINT RightShoulder
        {
          OFFSET -2.2086 21.1115 7.2329
          CHANNELS 3 Zrotation Xrotation Yrotation
          JOINT RightArm
          {
            OFFSET -13.1216 3.0287 -4.9007
            CHANNELS 3 Zrotation Xrotation Yrotation
            JOINT RightForeArm
            {
              OFFSET -27.4081 -0.0973053 -0.2375
              CHANNELS 3 Zrotation Xrotation Yrotation
              JOINT RightHand
              {
                OFFSET -22.8641 0.0664063 -0.1369
                CHANNELS 3 Zrotation Xrotation Yrotation
                JOINT RightHandIndex1
                {
                  OFFSET -8.8614 0.774994 2.4612
                  CHANNELS 3 Zrotation Xrotation Yrotation
                  JOINT RightHandIndex2
                  {
                    OFFSET -3.3146 -0.808304 0.5841
                    CHANNELS 3 Zrotation Xrotation Yrotation
                    JOINT RightHandIndex3
                    {
                      OFFSET -2.2628 -0.552002 0.3989
                      CHANNELS 3 Zrotation Xrotation Yrotation
                      End Site
                      {
                        OFFSET -1.6102 -0.4807 0.2612
                      }
                    }
                  }
                }
                JOINT RightHandMiddle1
                {
                  OFFSET -8.9937 0.894989 0.2143
                  CHANNELS 3 Zrotation Xrotation Yrotation
                  JOINT RightHandMiddle2
                  {
                    OFFSET -4.0984 0.0113983 -0.0242
                    CHANNELS 3 Zrotation Xrotation Yrotation
                    JOINT RightHandMiddle3
                    {
                      OFFSET -2.2716 0.00691223 -0.0138001
                      CHANNELS 3 Zrotation Xrotation Yrotation
                      End Site
                      {
                        OFFSET -2.0404 -0.1441 0.0027
                      }
                    }
                  }
                }
                JOINT RightHandRing1
                {
                  OFFSET -8.5234 0.597198 -2.0164
                  CHANNELS 3 Zrotation Xrotation Yrotation
                  JOINT RightHandRing2
                  {
                    OFFSET -3.7188 -0.188309 -0.2328
                    CHANNELS 3 Zrotation Xrotation Yrotation
                    JOINT RightHandRing3
                    {
                      OFFSET -2.1191 -0.106598 -0.1332
                      CHANNELS 3 Zrotation Xrotation Yrotation
                      End Site
                      {
                        OFFSET -1.8737 -0.2304 -0.0886
                      }
                    }
                  }
                }
                JOINT RightHandPinky1
                {
                  OFFSET -7.9094 -0.601105 -3.4825
                  CHANNELS 3 Zrotation Xrotation Yrotation
                  JOINT RightHandPinky2
                  {
                    OFFSET -2.2874 -0.477005 -0.6314
                    CHANNELS 3 Zrotation Xrotation Yrotation
                    JOINT RightHandPinky3
                    {
                      OFFSET -1.6774 -0.349396 -0.4633
                      CHANNELS 3 Zrotation Xrotation Yrotation
                      End Site
                      {
                        OFFSET -1.4888 -0.4091 -0.3416
                      }
                    }
                  }
                }
                JOINT RightHandThumb1
                {
                  OFFSET -1.833 -1.38751 1.3896
                  CHANNELS 3 Zrotation Xrotation Yrotation
                  JOINT RightHandThumb2
                  {
                    OFFSET -3.41299 -1.12099 2.5732
                    CHANNELS 3 Zrotation Xrotation Yrotation
                    JOINT RightHandThumb3
                    {
                      OFFSET -2.24741 -0.804108 1.6192
                      CHANNELS 3 Zrotation Xrotation Yrotation
                      End Site
                      {
                        OFFSET -1.6527 -0.5689 1.1317
                      }
                    }
                  }
                }
              }
            }
          }
        }
      }
    }
  }
  JOINT RightUpLeg
  {
    OFFSET -9.1966 3.8861 -0.7581
    CHANNELS 3 Zrotation Xrotation Yrotation
    JOINT RightLeg
    {
      OFFSET -0.7359 -41.0265 0
      CHANNELS 3 Zrotation Xrotation Yrotation
      JOINT RightFoot
      {
        OFFSET 0 -40.2855 0
        CHANNELS 3 Zrotation Xrotation Yrotation
        JOINT RightToeBase
        {
          OFFSET 0 -5.6122 11.7359
          CHANNELS 3 Zrotation Xrotation Yrotation
          End Site
          {
            OFFSET 0 0 7.8731
          }
        }
      }
    }
  }
  JOINT LeftUpLeg
  {
    OFFSET 9.1965 3.8864 -0.7581
    CHANNELS 3 Zrotation Xrotation Yrotation
    JOINT LeftLeg
    {
      OFFSET 0.7359 -41.0268 0
      CHANNELS 3 Zrotation Xrotation Yrotation
      JOINT LeftFoot
      {
        OFFSET 0 -40.2855 0
        CHANNELS 3 Zrotation Xrotation Yrotation
        JOINT LeftToeBase
        {
          OFFSET 0 -5.6122 11.7359
          CHANNELS 3 Zrotation Xrotation Yrotation
          End Site
          {
            OFFSET 0 0 7.8731
          }
        }
      }
    }
  }
}
MOTION
Frames:	4
Frame Time:	0.0333333
5.84602e-005 68.8428 3.50346 0 0 -0 0 0 -0 0 0 -0 0 0 -0 0 0 -0 0 0 -0 0 0 -0 0 0 -0 0 0 -0 0 0 -0 0 0 -0 0 0 -0 0 0 -0 0 0 -0 -0.0146107 -8.87603e-005 -2.63497e-007 2.99804e-018 -2.42657e-020 -1.42182e-022 0 0 -0 -0.0187562 -0.001176 5.858e-005 5.06224e-018 3.88251e-019 1.21329e-020 0 0 -0 -0.012269 -0.00324817 0.000675346 -1.74678e-018 3.88251e-019 -0 0 0 -0 0 0 -0 0 0 -0 0 0 -0 0 0 -0 0 0 -0 0 0 -0 0 0 -0 0 0 -0 0 0 -0 0 0 -0 0.0149955 -9.10982e-005 2.64101e-007 -9.69331e-018 1.21329e-020 -4.7394e-023 0 0 -0 0.0189956 -0.00119102 -5.96516e-005 -5.41541e-019 0 2.42657e-020 0 0 -0 0.0122698 -0.00324857 -0.000673756 -2.00796e-019 0 -1.94126e-019 0 0 -0 0 0 -0 0 0 -0 3.39842 1.33031 -0.0637918 -5.65207e-008 0.834868 -0.000436188 -3.39935 -2.16518 -0.0642563 -8.89002e-024 -1.18485e-023 -1.48106e-024 -3.39844 1.35642 0.0640283 -3.18788e-007 0.782166 -0.000588827 3.39931 -2.13858 0.0634662 1.1399e-023 0 -0 
-6.46194 11.5729 -7.00146 -0 -3.00261 -0 -0.397682 0.743349 3.02443 -0.83415 1.46477 6.05467 -0.83415 1.46477 6.05467 13.997 -2.46623e-005 6.07368e-005 -9.30729e-007 -0.49135 4.53989e-007 27.1928 6.99353 -73.6079 -39.1277 -14.6715 -12.7522 -56.2859 -21.9706 -91.3033 -28.8491 29.953 10.5556 3.40236e-007 -1.20239e-007 -2.27728e-007 1.36094e-006 -4.80954e-007 -9.10911e-007 -1.70118e-007 6.01193e-008 1.13864e-007 3.40236e-007 -1.20239e-007 -2.27728e-007 -0.0145642 -8.91069e-005 3.42305e-006 -1.70119e-007 6.01048e-008 1.13872e-007 3.40236e-007 -1.20239e-007 -2.27728e-007 -0.0188233 -0.00117805 5.69117e-005 -1.70118e-007 6.01006e-008 1.13876e-007 3.40236e-007 -1.20239e-007 -2.27728e-007 -0.012305 -0.00326441 0.000681984 -1.70115e-007 6.01079e-008 1.13875e-007 3.40236e-007 -1.20239e-007 -2.27728e-007 1.36094e-006 -4.80954e-007 -9.10911e-007 -1.70118e-007 6.01193e-008 1.13864e-007 -1.24707 -18.2152 6.78744 76.8542 6.78791 19.7959 -12.2828 -3.85745 40.5184 66.7132 4.94743 -15.7894 1.13962e-006 5.81278e-007 -1.07798e-006 1.23289e-007 4.78278e-007 -4.4352e-006 5.97769e-008 3.4958e-007 -3.36452e-007 1.13962e-006 5.81278e-007 -1.07798e-006 0.0149663 -8.85939e-005 -4.9316e-006 2.21802e-006 8.12748e-007 -1.81961e-006 1.13962e-006 5.81278e-007 -1.07798e-006 0.0189653 -0.00118896 -6.04544e-005 2.21762e-006 8.12792e-007 -1.81966e-006 1.13962e-006 5.81278e-007 -1.07798e-006 0.0122142 -0.00323485 -0.00067561 6.08712e-008 3.49251e-007 -3.36551e-007 1.13962e-006 5.81278e-007 -1.07798e-006 1.23289e-007 4.78278e-007 -4.4352e-006 5.97769e-008 3.4958e-007 -3.36452e-007 -106.342 -46.2094 -121.18 -166.482 40.9211 151.802 19.5402 -33.085 12.5674 -1.88299e-006 1.06953e-007 -1.09785e-009 113.824 -34.7252 112.915 162.275 50.7408 -149.845 -22.3117 -10.492 -20.7359 4.77083e-015 -4.77083e-015 9.54166e-015 
-6.46089 11.8524 -6.79268 -0 -4.81472 -0 -0.325655 1.35719 3.02979 -0.722932 2.69525 6.06977 -0.722931 2.69525 6.06977 13.6991 -0.357842 -0.151057 3.86905e-006 -0.96966 -1.57973e-006 26.9568 6.05044 -73.3583 -38.7881 -14.7931 -12.6679 -56.2945 -22.313 -91.2393 -28.8567 29.8507 10.2954 3.40205e-007 -1.20371e-007 -2.27711e-007 3.89642e-007 -8.80936e-007 -4.20176e-006 -1.70102e-007 6.01855e-008 1.13856e-007 3.40205e-007 -1.20371e-007 -2.27711e-007 -0.0145982 -8.84706e-005 -4.80262e-006 -1.70103e-007 6.01709e-008 1.13863e-007 3.40205e-007 -1.20371e-007 -2.27711e-007 -0.0187387 -0.00117227 5.28961e-005 -1.70102e-007 6.01669e-008 1.13867e-007 3.40205e-007 -1.20371e-007 -2.27711e-007 -0.012214 -0.0032295 0.000667751 -1.70099e-007 6.01742e-008 1.13867e-007 3.40205e-007 -1.20371e-007 -2.27711e-007 3.89642e-007 -8.80936e-007 -4.20176e-006 -1.70102e-007 6.01855e-008 1.13856e-007 -1.45316 -19.3955 7.17158 76.4993 6.6233 19.8431 -12.2914 -3.86477 40.5102 66.7186 4.936 -15.7811 -1.14105e-006 -5.81843e-007 1.07526e-006 -1.07912e-006 -2.10596e-007 7.25412e-007 -6.19289e-008 -3.71247e-007 3.49847e-007 -1.14105e-006 -5.81843e-007 1.07526e-006 0.0150481 -9.51907e-005 -4.99607e-006 -2.21872e-006 -7.92212e-007 1.80078e-006 -1.14105e-006 -5.81843e-007 1.07526e-006 0.0190384 -0.00118405 -5.34409e-005 -1.14098e-006 -5.81669e-007 1.07537e-006 -1.14105e-006 -5.81843e-007 1.07526e-006 0.0122282 -0.00323889 -0.000679266 -1.14098e-006 -5.81745e-007 1.07535e-006 -1.14105e-006 -5.81843e-007 1.07526e-006 -1.07912e-006 -2.10596e-007 7.25412e-007 -6.19289e-008 -3.71247e-007 3.49847e-007 -103.476 -45.6163 -118.161 -166.332 41.2005 151.775 18.9084 -33.151 13.2484 -3.18055e-015 1.59028e-015 -3.18055e-015 112.236 -34.0636 111.051 162.273 50.7428 -149.849 -21.2916 -10.542 -21.4642 -3.35265e-007 -7.74031e-007 -1.18159e-007 
-6.45976 12.1392 -6.58707 -0 -6.63424 -0 -0.253286 1.97304 3.03282 -0.611288 3.9299 6.07972 -0.611287 3.9299 6.07972 13.3992 -0.716088 -0.304122 -1.32382e-006 -1.44867 -3.78703e-006 26.7251 5.10522 -73.1127 -38.448 -14.9143 -12.5829 -56.3026 -22.6555 -91.1752 -28.8648 29.7483 10.0353 1.70088e-007 -6.0243e-008 -1.13849e-007 -1.36071e-006 4.81944e-007 9.10794e-007 1.70088e-007 -6.0243e-008 -1.13849e-007 1.70088e-007 -6.0243e-008 -1.13849e-007 -0.0146165 -8.77693e-005 -4.71004e-007 1.70089e-007 -6.02285e-008 -1.13857e-007 1.70088e-007 -6.0243e-008 -1.13849e-007 -0.0187269 -0.0011728 5.84876e-005 1.70088e-007 -6.02245e-008 -1.13861e-007 1.70088e-007 -6.0243e-008 -1.13849e-007 -0.0122678 -0.00325217 0.000679039 1.70085e-007 -6.02317e-008 -1.13861e-007 1.70088e-007 -6.0243e-008 -1.13849e-007 -1.36071e-006 4.81944e-007 9.10794e-007 1.70088e-007 -6.0243e-008 -1.13849e-007 -1.65272 -20.5795 7.55489 76.1446 6.45835 19.8893 -12.3 -3.87208 40.5021 66.7241 4.92458 -15.7727 -2.22097e-006 -7.7177e-007 1.78288e-006 1.00262e-006 1.1303e-007 3.35762e-006 -1.14252e-006 -5.82303e-007 1.07257e-006 -2.22097e-006 -7.7177e-007 1.78288e-006 0.0150136 -9.45755e-005 5.86516e-006 -1.14248e-006 -5.82163e-007 1.07265e-006 -2.22097e-006 -7.7177e-007 1.78288e-006 0.0190391 -0.00119404 -5.39211e-005 -1.14245e-006 -5.82129e-007 1.07268e-006 -2.22097e-006 -7.7177e-007 1.78288e-006 0.0122516 -0.00324118 -0.00067046 -6.51692e-008 -3.92505e-007 3.62366e-007 -2.22097e-006 -7.7177e-007 1.78288e-006 1.00262e-006 1.1303e-007 3.35762e-006 -1.14252e-006 -5.82303e-007 1.07257e-006 -100.683 -44.9201 -115.213 -166.181 41.48 151.748 18.2767 -33.2221 13.9297 1.59028e-015 -4.77083e-015 -0 110.683 -33.3559 109.218 162.272 50.745 -149.853 -20.2704 -10.6036 -22.1932 2.11727e-006 -3.71584e-007 3.09501e-006 
